<svg width="16" height="16" viewBox="0 0 16 16" fill="none" xmlns="http://www.w3.org/2000/svg">
<path d="M8 0C6.41775 0 4.87103 0.469192 3.55544 1.34824C2.23985 2.22729 1.21447 3.47672 0.608967 4.93853C0.00346633 6.40034 -0.15496 8.00887 0.153721 9.56072C0.462403 11.1126 1.22433 12.538 2.34315 13.6569C3.46197 14.7757 4.88743 15.5376 6.43928 15.8463C7.99113 16.155 9.59966 15.9965 11.0615 15.391C12.5233 14.7855 13.7727 13.7602 14.6518 12.4446C15.5308 11.129 16 9.58225 16 8C16 5.87827 15.1571 3.84344 13.6569 2.34315C12.1566 0.842855 10.1217 0 8 0ZM11.1314 11.1314C11.0389 11.2254 10.9286 11.3001 10.807 11.351C10.6853 11.402 10.5547 11.4282 10.4229 11.4282C10.291 11.4282 10.1604 11.402 10.0388 11.351C9.91711 11.3001 9.80681 11.2254 9.71429 11.1314L8.20572 9.61143C8.14914 9.56083 8.0759 9.53285 8 9.53285C7.9241 9.53285 7.85086 9.56083 7.79429 9.61143L6.28572 11.1314C6.09732 11.3185 5.84262 11.4234 5.57715 11.4234C5.31167 11.4234 5.05697 11.3185 4.86857 11.1314C4.77347 11.0397 4.69806 10.9296 4.64697 10.8078C4.59588 10.6859 4.57018 10.555 4.57143 10.4229C4.57148 10.2909 4.59778 10.1604 4.64879 10.0387C4.69981 9.91706 4.77452 9.80678 4.86857 9.71429L6.38857 8.20571C6.43918 8.14914 6.46715 8.0759 6.46715 8C6.46715 7.9241 6.43918 7.85086 6.38857 7.79429L4.86857 6.28571C4.70623 6.09307 4.6221 5.84652 4.63282 5.59482C4.64354 5.34312 4.74833 5.10461 4.92647 4.92647C5.10461 4.74833 5.34312 4.64354 5.59482 4.63281C5.84652 4.62209 6.09307 4.70623 6.28572 4.86857L7.79429 6.38857C7.85086 6.43917 7.9241 6.46715 8 6.46715C8.0759 6.46715 8.14914 6.43917 8.20572 6.38857L9.71429 4.86857C9.80404 4.76207 9.91494 4.67537 10.04 4.61396C10.165 4.55256 10.3014 4.51779 10.4405 4.51187C10.5797 4.50594 10.7186 4.52898 10.8483 4.57953C10.9781 4.63008 11.096 4.70704 11.1945 4.80552C11.293 4.90401 11.3699 5.02188 11.4205 5.15166C11.471 5.28145 11.4941 5.42031 11.4881 5.55947C11.4822 5.69862 11.4474 5.83503 11.386 5.96005C11.3246 6.08506 11.2379 6.19596 11.1314 6.28571L9.61143 7.79429C9.56083 7.85086 9.53285 7.9241 9.53285 8C9.53285 8.0759 9.56083 8.14914 9.61143 8.20571L11.1314 9.71429C11.2255 9.80678 11.3002 9.91706 11.3512 10.0387C11.4022 10.1604 11.4285 10.2909 11.4286 10.4229C11.4298 10.555 11.4041 10.6859 11.353 10.8078C11.3019 10.9296 11.2265 11.0397 11.1314 11.1314Z" fill="#FF5533"/>
</svg>
