<?xml version="1.0" encoding="utf-8"?>
<!-- Generator: Adobe Illustrator 22.1.0, SVG Export Plug-In . SVG Version: 6.00 Build 0)  -->
<svg version="1.1" id="Calque_1" xmlns="http://www.w3.org/2000/svg" xmlns:xlink="http://www.w3.org/1999/xlink" x="0px" y="0px"
	 viewBox="0 0 324.9 292.7" style="enable-background:new 0 0 324.9 292.7;" xml:space="preserve">
<style type="text/css">
	.st0{fill:#534F97;}
	.st1{fill:#FFFFFF;}
</style>
<path class="st0" d="M222.7-0.1H102.8C87.6-0.1,73.6,8,65.9,21.2L5.9,125c-7.6,13.2-7.6,29.4,0,42.5l60,103.8
	c7.6,13.2,21.6,21.3,36.8,21.3h123.2c13.2,0,25.3-7,31.9-18.4l61.6-106.7c7.6-13.2,7.6-29.4,0-42.5l-60-103.8
	C251.9,8,237.9-0.1,222.7-0.1z"/>
<g>
	<path class="st1" d="M275.1,170.7c-3-7.5-8.4-15-15.6-21.5c-0.9,0.8-1.9,1.6-2.9,2.3c-10.7,8.1-22.6,13.3-33.7,14.6
		c-1.8,0.2-3.5,0.3-5.1,0.3c-5.4,0-10.2-1.1-14.2-3.2c4,7.8,10.6,15.7,19.2,22.3c9.8,7.5,20.7,12.2,30.7,13.4
		c9.4,1.1,16.8-1.2,20.8-6.4C278.4,187.2,278.6,179.5,275.1,170.7z"/>
	<path class="st1" d="M200.8,131.9c-3.5,8.8-3.3,16.5,0.7,21.8c4,5.2,11.4,7.5,20.8,6.4c10-1.1,20.9-5.9,30.7-13.4
		c19.5-14.9,28.8-36.8,20.4-47.8c-3.4-4.5-9.3-6.6-16.3-6.6c-10.5,0-23.6,4.7-35.2,13.6C212,113.3,204.6,122.6,200.8,131.9z"/>
	<path class="st1" d="M107,166.4c-1.7,0-3.4-0.1-5.1-0.3c-11.1-1.3-23-6.4-33.7-14.6c-1-0.8-1.9-1.5-2.9-2.3
		c-7.1,6.5-12.5,14-15.6,21.5c-3.5,8.8-3.3,16.5,0.7,21.8c4,5.2,11.4,7.5,20.8,6.4c10-1.1,20.9-5.9,30.7-13.4
		c8.6-6.6,15.2-14.5,19.2-22.3C117.3,165.3,112.5,166.4,107,166.4z"/>
	<path class="st1" d="M71.9,146.7c9.8,7.5,20.7,12.2,30.7,13.4c9.4,1.1,16.8-1.2,20.8-6.4c4-5.2,4.2-12.9,0.7-21.8
		c-3.8-9.3-11.2-18.6-21-26.1C91.4,97,78.3,92.3,67.9,92.3c-7.1,0-12.9,2.1-16.3,6.6C43.1,110,52.4,131.9,71.9,146.7z"/>
	<path class="st1" d="M162.5,200.8c-0.1,0-0.2,0-0.4,0c-15.9,0-31.4-2.1-46.3-6.1c1,4.8,2.3,9.3,3.8,13.6c13.7,3.7,28,5.7,42.5,5.7
		c0.1,0,0.2,0,0.4,0c0.1,0,0.2,0,0.4,0c14.6,0,28.8-1.9,42.5-5.7c1.5-4.3,2.8-8.9,3.8-13.6c-14.9,4-30.4,6.1-46.3,6.1
		C162.7,200.8,162.6,200.8,162.5,200.8z"/>
	<path class="st1" d="M162.5,230c-0.1,0-0.2,0-0.4,0c-11.4,0-22.6-1.1-33.6-3.2c8.8,13.5,20.8,21.9,33.9,21.9s25.1-8.3,33.9-21.9
		c-10.9,2.1-22.2,3.2-33.6,3.2C162.7,230,162.6,230,162.5,230z"/>
	<path class="st1" d="M118.1,178.6c14.5,4.1,29.4,6.1,44.4,6.1c14.9,0,29.9-2,44.4-6.1c-3.4-4-6.2-8.1-8.4-12.2
		c-11.6,2.4-23.5,3.6-35.6,3.6c-0.1,0-0.2,0-0.4,0c-0.1,0-0.2,0-0.4,0c-12.1,0-24-1.2-35.6-3.6C124.3,170.5,121.5,174.6,118.1,178.6
		z"/>
	<path class="st1" d="M200.5,119.8c-0.3-0.7-0.7-1.3-1-1.9c-10,6.2-22.9,9.9-37,9.9s-27-3.7-37-9.9c-0.3,0.6-0.7,1.3-1,1.9
		c2.1,3.2,3.9,6.5,5.2,9.9c3.2,7.9,3.8,15.3,1.8,21.4c0,0,0,0,0,0c10,1.9,20.3,2.9,30.7,2.9c0.1,0,0.2,0,0.4,0c0.1,0,0.2,0,0.4,0
		c10.4,0,20.7-1,30.7-2.9c0,0,0,0,0,0c-2-6.1-1.4-13.5,1.8-21.4C196.6,126.4,198.3,123.1,200.5,119.8z"/>
	<path class="st1" d="M108.9,55.6c7.2,0,13.8,2.1,19.5,5.7c-9.8,6.3-16,15.2-16,25.2c0,10.2,6.4,19.3,16.7,25.6
		c8.9,5.5,20.6,8.8,33.4,8.8s24.6-3.3,33.4-8.8c10.2-6.3,16.7-15.4,16.7-25.6c0-10.1-6.3-19.2-16.4-25.5c5.5-3.4,12-5.4,19-5.4
		c2.2,0,4-1.8,4-4s-1.8-4-4-4c-10.2,0-19.5,3.4-27,9.2c-7.5-3.1-16.3-4.9-25.7-4.9c-9.6,0-18.6,1.9-26.3,5.1
		c-7.5-5.9-17-9.5-27.4-9.5c-2.2,0-4,1.8-4,4S106.7,55.6,108.9,55.6z"/>
</g>
</svg>
