<svg width="16" height="16" viewBox="0 0 16 16" fill="none" xmlns="http://www.w3.org/2000/svg">
<path fill-rule="evenodd" clip-rule="evenodd" d="M0 8C0 3.584 3.584 0 8 0C12.416 0 16 3.584 16 8C16 12.416 12.416 16 8 16C3.584 16 0 12.416 0 8ZM8 5.57143C7.36882 5.57143 6.85714 5.05975 6.85714 4.42857C6.85714 3.79739 7.36882 3.28571 8 3.28571C8.63118 3.28571 9.14286 3.79739 9.14286 4.42857C9.14286 5.05975 8.63118 5.57143 8 5.57143ZM8 13.7143C7.36882 13.7143 6.85714 13.2026 6.85714 12.5714V8C6.85714 7.36882 7.36882 6.85714 8 6.85714C8.63118 6.85714 9.14286 7.36882 9.14286 8V12.5714C9.14286 13.2026 8.63118 13.7143 8 13.7143Z" fill="#3399FF"/>
</svg>
