<?xml version="1.0" encoding="UTF-8" standalone="no"?>
<!-- Generator: Adobe Illustrator 22.0.1, SVG Export Plug-In . SVG Version: 6.00 Build 0)  -->

<svg
   xmlns:dc="http://purl.org/dc/elements/1.1/"
   xmlns:cc="http://creativecommons.org/ns#"
   xmlns:rdf="http://www.w3.org/1999/02/22-rdf-syntax-ns#"
   xmlns:svg="http://www.w3.org/2000/svg"
   xmlns="http://www.w3.org/2000/svg"
   xmlns:sodipodi="http://sodipodi.sourceforge.net/DTD/sodipodi-0.dtd"
   xmlns:inkscape="http://www.inkscape.org/namespaces/inkscape"
   version="1.1"
   id="Layer_1"
   x="0px"
   y="0px"
   viewBox="0 0 64 64"
   style="enable-background:new 0 0 64 64;"
   xml:space="preserve"
   sodipodi:docname="locked_by_other.svg"
   inkscape:version="0.92.1 r15371"
   inkscape:export-filename="D:\dev\perso\hive\resources\locked_by_other.png"
   inkscape:export-xdpi="96"
   inkscape:export-ydpi="96"><metadata
     id="metadata26"><rdf:RDF><cc:Work
         rdf:about=""><dc:format>image/svg+xml</dc:format><dc:type
           rdf:resource="http://purl.org/dc/dcmitype/StillImage" /></cc:Work></rdf:RDF></metadata><defs
     id="defs24" /><sodipodi:namedview
     pagecolor="#ffffff"
     bordercolor="#666666"
     borderopacity="1"
     objecttolerance="10"
     gridtolerance="10"
     guidetolerance="10"
     inkscape:pageopacity="0"
     inkscape:pageshadow="2"
     inkscape:window-width="1920"
     inkscape:window-height="1057"
     id="namedview22"
     showgrid="false"
     inkscape:zoom="3.6875"
     inkscape:cx="32"
     inkscape:cy="32"
     inkscape:window-x="1912"
     inkscape:window-y="-8"
     inkscape:window-maximized="1"
     inkscape:current-layer="Layer_1" /><style
     type="text/css"
     id="style2">
	.st0{display:none;}
	.st1{display:inline;fill:none;stroke:#424A60;stroke-width:4;stroke-linecap:round;stroke-miterlimit:10;}
	.st2{display:inline;fill:#EBBA16;}
	.st3{display:inline;fill:#424A60;}
	.st4{display:inline;fill:#38454F;}
	.st5{fill:none;stroke:#424A60;stroke-width:4;stroke-linecap:round;stroke-miterlimit:10;}
	.st6{fill:#4AA5FF;}
	.st7{fill:#424A60;}
	.st8{fill:#38454F;}
</style><g
     id="locked"
     class="st0"><path
       class="st1"
       d="M20,30.5V15.1c0-5.8,5.2-10.6,11.5-10.6l0,0C37.8,4.5,43,9.3,43,15.1v15.4H20z"
       id="path4" /><rect
       x="11"
       y="27.5"
       class="st2"
       width="42"
       height="32"
       id="rect6" /><path
       class="st3"
       d="M32,47.5L32,47.5c-1.6,0-3-1.3-3-3v-6c0-1.7,1.4-3,3-3l0,0c1.7,0,3,1.3,3,3v6C35,46.2,33.7,47.5,32,47.5z"
       id="path8" /><rect
       x="11"
       y="53.5"
       class="st4"
       width="42"
       height="6"
       id="rect10" /></g><path
     class="st5"
     d="M20,30.5V15.1c0-5.8,5.2-10.6,11.5-10.6l0,0C37.8,4.5,43,9.3,43,15.1v15.4H20z"
     id="path13" /><rect
     x="11"
     y="27.5"
     class="st6"
     width="42"
     height="32"
     id="rect15"
     style="fill:#ff4d4a;fill-opacity:1" /><path
     class="st7"
     d="M32,47.5L32,47.5c-1.6,0-3-1.3-3-3v-6c0-1.7,1.4-3,3-3l0,0c1.7,0,3,1.3,3,3v6C35,46.2,33.7,47.5,32,47.5z"
     id="path17" /><rect
     x="11"
     y="53.5"
     class="st8"
     width="42"
     height="6"
     id="rect19" /></svg>