<?xml version="1.0" encoding="UTF-8" standalone="no"?>
<!-- Generator: Adobe Illustrator 22.0.1, SVG Export Plug-In . SVG Version: 6.00 Build 0)  -->

<svg
   xmlns:dc="http://purl.org/dc/elements/1.1/"
   xmlns:cc="http://creativecommons.org/ns#"
   xmlns:rdf="http://www.w3.org/1999/02/22-rdf-syntax-ns#"
   xmlns:svg="http://www.w3.org/2000/svg"
   xmlns="http://www.w3.org/2000/svg"
   xmlns:sodipodi="http://sodipodi.sourceforge.net/DTD/sodipodi-0.dtd"
   xmlns:inkscape="http://www.inkscape.org/namespaces/inkscape"
   version="1.1"
   x="0px"
   y="0px"
   viewBox="0 0 64 64"
   style="enable-background:new 0 0 64 64;"
   xml:space="preserve"
   id="svg4505"
   sodipodi:docname="lock_not_supported.svg"
   inkscape:export-filename="..\lock_not_supported.png"
   inkscape:export-xdpi="96"
   inkscape:export-ydpi="96"
   inkscape:version="0.92.3 (2405546, 2018-03-11)"><metadata
     id="metadata4511"><rdf:RDF><cc:Work
         rdf:about=""><dc:format>image/svg+xml</dc:format><dc:type
           rdf:resource="http://purl.org/dc/dcmitype/StillImage" /></cc:Work></rdf:RDF></metadata><defs
     id="defs4509" /><sodipodi:namedview
     pagecolor="#ffffff"
     bordercolor="#666666"
     borderopacity="1"
     objecttolerance="10"
     gridtolerance="10"
     guidetolerance="10"
     inkscape:pageopacity="0"
     inkscape:pageshadow="2"
     inkscape:window-width="1920"
     inkscape:window-height="1147"
     id="namedview4507"
     showgrid="false"
     inkscape:zoom="2.8284271"
     inkscape:cx="-72.92637"
     inkscape:cy="27.497532"
     inkscape:window-x="-8"
     inkscape:window-y="-8"
     inkscape:window-maximized="1"
     inkscape:current-layer="unlocked" /><style
     type="text/css"
     id="style4485">
	.st0{display:none;}
	.st1{display:inline;fill:none;stroke:#424A60;stroke-width:4;stroke-linecap:round;stroke-miterlimit:10;}
	.st2{display:inline;fill:#EBBA16;}
	.st3{display:inline;fill:#424A60;}
	.st4{display:inline;fill:#38454F;}
	.st5{fill:none;stroke:#424A60;stroke-width:4;stroke-linecap:round;stroke-miterlimit:10;}
	.st6{fill:#EBBA16;}
	.st7{fill:#424A60;}
	.st8{fill:#38454F;}
</style><g
     id="locked"
     class="st0"><path
       class="st1"
       d="M20,30.5V15.1c0-5.8,5.2-10.6,11.5-10.6l0,0C37.8,4.5,43,9.3,43,15.1v15.4H20z"
       id="path4487" /><rect
       x="11"
       y="27.5"
       class="st2"
       width="42"
       height="32"
       id="rect4489" /><path
       class="st3"
       d="M32,47.5L32,47.5c-1.6,0-3-1.3-3-3v-6c0-1.7,1.4-3,3-3l0,0c1.7,0,3,1.3,3,3v6C35,46.2,33.7,47.5,32,47.5z"
       id="path4491" /><rect
       x="11"
       y="53.5"
       class="st4"
       width="42"
       height="6"
       id="rect4493" /></g><g
     id="unlocked"><g
       id="g865"
       transform="matrix(0.15211233,0,0,0.15211233,-7.3078167,-4.1403238)"
       style="opacity:0.90200028;fill:#d20000;fill-opacity:0.79899495"><path
         inkscape:connector-curvature="0"
         id="path8"
         d="m 259.39661,82.158227 c -88.0031,7e-5 -159.599607,71.596273 -159.599607,159.599613 0,43.416 17.432247,82.82982 45.656247,111.63282 0.338,0.42 0.69885,0.8297 1.08985,1.2207 0.391,0.391 0.80265,0.75184 1.22265,1.08984 28.80257,28.22458 68.21563,45.65573 111.63086,45.65625 6.5e-4,0 10e-4,0 0.002,0 1.37505,0 2.74646,-0.018 4.11328,-0.0527 1.36618,-0.0347 2.7284,-0.0872 4.08594,-0.15625 1.35818,-0.0691 2.71338,-0.15483 4.0625,-0.25781 4.0467,-0.3089 8.0522,-0.76863 12.00977,-1.375 1.3194,-0.20218 2.6347,-0.42186 3.94336,-0.65625 1.30801,-0.23429 2.61134,-0.48395 3.9082,-0.75 3.89245,-0.7986 7.73518,-1.73918 11.51953,-2.81641 1.26084,-0.3589 2.51567,-0.73406 3.76367,-1.12305 1.2486,-0.38919 2.49124,-0.794 3.72657,-1.21289 32.11869,-10.89121 59.67844,-31.74756 78.98046,-58.87109 0.7424,-1.04319 1.47366,-2.09473 2.19141,-3.15625 4.30645,-6.3691 8.165,-13.06518 11.53125,-20.04102 1.68315,-3.48792 3.24278,-7.04541 4.67383,-10.66797 0.47723,-1.20808 0.94032,-2.42231 1.38867,-3.64453 0.15796,-0.43057 0.30464,-0.86653 0.45898,-1.29882 0.28331,-0.79357 0.56883,-1.5855 0.83985,-2.38477 0.41917,-1.23611 0.82345,-2.47716 1.21289,-3.72656 1.55674,-4.99442 2.87468,-10.09323 3.93945,-15.28321 0.5324,-2.59499 1.0019,-5.21273 1.40625,-7.85156 1.21305,-7.91648 1.8418,-16.02306 1.8418,-24.27344 -3e-5,-1.35656 -0.0169,-2.71004 -0.0508,-4.05859 -0.16934,-6.74274 -0.75928,-13.3824 -1.74414,-19.89453 -0.39395,-2.60485 -0.85039,-5.18965 -1.36914,-7.75195 -0.77808,-3.84347 -1.69437,-7.63634 -2.74414,-11.375 -0.6999,-2.49245 -1.4588,-4.96052 -2.2754,-7.40235 -0.81659,-2.44183 -1.69103,-4.8581 -2.62109,-7.24609 -2.32504,-5.96998 -4.99931,-11.76705 -7.99805,-17.36524 -0.97878,-1.82724 -2.00184,-3.62609 -3.04882,-5.41015 -0.23638,-0.40278 -0.46529,-0.81042 -0.70508,-1.21094 -0.24766,-0.41366 -0.50653,-0.81924 -0.75781,-1.23047 -3.71058,-6.07248 -7.80644,-11.88566 -12.26954,-17.39062 -3.17708,-3.91875 -6.53525,-7.68504 -10.0625,-11.28516 -0.341,-0.426 -0.70461,-0.84042 -1.09961,-1.23242 -0.39499,-0.395 -0.80546,-0.75766 -1.23046,-1.09766 -0.90038,-0.88218 -1.81152,-1.75239 -2.73243,-2.61328 -0.43924,-0.41062 -0.88818,-0.81109 -1.33203,-1.2168 -1.41655,-1.29483 -2.84803,-2.57254 -4.31054,-3.8164 -1.4963,-1.27259 -3.02352,-2.5108 -4.56641,-3.72852 -0.43728,-0.34512 -0.8696,-0.69647 -1.31055,-1.03711 -4.1e-4,-3.2e-4 -0.002,3.2e-4 -0.002,0 -0.99818,-0.77109 -2.00482,-1.53149 -3.02148,-2.27929 -4.3e-4,-3.2e-4 -0.002,3.1e-4 -0.002,0 -1.01667,-0.7478 -2.04142,-1.48489 -3.07617,-2.20899 -4.4e-4,-3.1e-4 -0.002,3.1e-4 -0.002,0 -1.03476,-0.72409 -2.07843,-1.43672 -3.13086,-2.13672 -4.6e-4,-3e-4 -10e-4,3e-4 -0.002,0 -1.05289,-0.70028 -2.11342,-1.38869 -3.1836,-2.06445 -3.21103,-2.02762 -6.49798,-3.9426 -9.85742,-5.74219 -1.11913,-0.5995 -2.24607,-1.188333 -3.38086,-1.761723 -5.2e-4,-2.6e-4 -10e-4,2.7e-4 -0.002,0 -1.13532,-0.57364 -2.27715,-1.13259 -3.42774,-1.67968 -3.45232,-1.64157 -6.97211,-3.16331 -10.55469,-4.5586 -1.19399,-0.46503 -2.3939,-0.9147 -3.60156,-1.35156 -1.20766,-0.43687 -2.42166,-0.86123 -3.64258,-1.26953 -2.44183,-0.8166 -4.9099,-1.57551 -7.40234,-2.27539 -1.24683,-0.35011 -2.49892,-0.68361 -3.75781,-1.00391 -1.25827,-0.32015 -2.5211,-0.62606 -3.79102,-0.91601 -1.27053,-0.29011 -2.54634,-0.56475 -3.82812,-0.82422 -2.5617,-0.51858 -5.14578,-0.97533 -7.75,-1.36914 -6.4e-4,-1e-4 -10e-4,9e-5 -0.002,0 -1.30242,-0.19696 -2.60941,-0.37783 -3.92187,-0.54297 -1.31246,-0.16515 -2.62909,-0.31434 -3.95117,-0.44727 -2.64417,-0.26585 -5.30607,-0.46701 -7.98633,-0.60156 -6.5e-4,-3e-5 -0.001,3e-5 -0.002,0 -1.33949,-0.06724 -2.68336,-0.11851 -4.03125,-0.15234 -6.5e-4,-2e-5 -0.001,1e-5 -0.002,0 -1.34855,-0.03384 -2.70008,-0.05079 -4.05664,-0.05079 z m 0,30.000003 h 0.002 c 0.94806,0 1.89268,0.0109 2.83594,0.0312 6.5e-4,2e-5 10e-4,-1e-5 0.002,0 1.88586,0.0408 3.76155,0.12129 5.62696,0.24219 6.4e-4,4e-5 10e-4,-4e-5 0.002,0 0.93237,0.0605 1.86211,0.13078 2.78906,0.21094 6.5e-4,6e-5 0.001,-6e-5 0.002,0 2.78213,0.24062 5.53999,0.56996 8.26953,0.98437 0.91005,0.13817 1.81691,0.2863 2.7207,0.44336 1.80758,0.31414 3.60349,0.66621 5.38477,1.05469 0.89063,0.19424 1.77641,0.39686 2.66015,0.60938 6.2e-4,1.4e-4 0.001,-1.5e-4 0.002,0 0.88313,0.21237 1.76264,0.43365 2.63868,0.66406 6.1e-4,1.6e-4 10e-4,-1.6e-4 0.002,0 0.87603,0.23042 1.74845,0.4705 2.61719,0.71875 6e-4,1.7e-4 10e-4,-1.7e-4 0.002,0 2.6074,0.74513 5.1828,1.57071 7.7207,2.47266 8.46164,3.00715 16.52073,6.87034 24.07422,11.48437 0.75535,0.4614 1.50488,0.92993 2.25,1.40625 2.23585,1.42922 4.42447,2.92463 6.56445,4.48438 1.42637,1.03961 2.83121,2.10762 4.2129,3.20312 L 259.39695,220.54686 157.80711,322.1367 c -17.528,-22.108 -28.00977,-50.04091 -28.00977,-80.37891 0,-71.46034 58.13751,-129.59854 129.59961,-129.59961 z m 101.58984,49.22461 c 0.54739,0.69039 1.08951,1.38624 1.62305,2.08789 1.60124,2.10576 3.14053,4.26137 4.61328,6.46485 0.49132,0.73509 0.97458,1.47516 1.45117,2.2207 1.42892,2.23528 2.79118,4.51629 4.08399,6.8418 0.43093,0.77517 0.85414,1.55506 1.26953,2.33984 0.41567,0.78528 0.82275,1.57445 1.22265,2.36914 1.59858,3.17671 3.07007,6.42737 4.40821,9.7461 0.66907,1.65936 1.3048,3.33694 1.90625,5.02929 0.90217,2.53854 1.72736,5.11263 2.47265,7.72071 0.49686,1.73871 0.95778,3.49223 1.38282,5.25976 0.42503,1.76753 0.81448,3.54908 1.16601,5.34375 0.35154,1.79468 0.66505,3.60173 0.94141,5.42188 0.69089,4.55036 1.14501,9.17787 1.34765,13.86914 0.0811,1.8765 0.1211,3.76403 0.1211,5.66015 0,4.46644 -0.22666,8.88104 -0.66992,13.23243 -0.55408,5.43923 -1.4461,10.77899 -2.6543,16 -0.48328,2.0884 -1.01646,4.15833 -1.59961,6.20703 -0.29158,1.02435 -0.59608,2.04273 -0.91211,3.05664 -0.31603,1.01391 -0.64423,2.02226 -0.98437,3.02539 -0.68047,2.00686 -1.40868,3.99146 -2.1836,5.95312 -1.16204,2.94163 -2.42816,5.82981 -3.79492,8.66211 -2.27793,4.7205 -4.8341,9.28341 -7.64648,13.66602 -1.12496,1.75304 -2.29042,3.47768 -3.4961,5.17187 -0.60284,0.8471 -1.21538,1.68571 -1.83789,2.51758 -1.24502,1.66375 -2.52992,3.29764 -3.85156,4.89844 -1.32164,1.60079 -2.68064,3.16997 -4.07617,4.70508 -1.39553,1.53511 -2.82824,3.03526 -4.29492,4.50195 -19.80021,19.8003 -45.95968,33.24212 -75.11329,36.95898 -1.07977,0.13767 -2.16413,0.26224 -3.25195,0.37305 -1.08717,0.11073 -2.17858,0.20744 -3.27344,0.29102 -2.19101,0.16724 -4.39741,0.2795 -6.61718,0.33593 -1.10989,0.0282 -2.22328,0.043 -3.33985,0.043 -6.5e-4,0 -10e-4,0 -0.002,0 -30.33724,-4.5e-4 -58.26948,-10.48409 -80.375,-28.01172 l 80.375,-80.375 z"
         style="fill:#d20000;fill-opacity:0.79899495" /><g
         id="g14"
         style="fill:#d20000;fill-opacity:0.79899495" /><g
         id="g16"
         style="fill:#d20000;fill-opacity:0.79899495" /><g
         id="g18"
         style="fill:#d20000;fill-opacity:0.79899495" /><g
         id="g20"
         style="fill:#d20000;fill-opacity:0.79899495" /><g
         id="g22"
         style="fill:#d20000;fill-opacity:0.79899495" /><g
         id="g24"
         style="fill:#d20000;fill-opacity:0.79899495" /><g
         id="g26"
         style="fill:#d20000;fill-opacity:0.79899495" /><g
         id="g28"
         style="fill:#d20000;fill-opacity:0.79899495" /><g
         id="g30"
         style="fill:#d20000;fill-opacity:0.79899495" /><g
         id="g32"
         style="fill:#d20000;fill-opacity:0.79899495" /><g
         id="g34"
         style="fill:#d20000;fill-opacity:0.79899495" /><g
         id="g36"
         style="fill:#d20000;fill-opacity:0.79899495" /><g
         id="g38"
         style="fill:#d20000;fill-opacity:0.79899495" /><g
         id="g40"
         style="fill:#d20000;fill-opacity:0.79899495" /><g
         id="g42"
         style="fill:#d20000;fill-opacity:0.79899495" /></g></g></svg>