<?xml version="1.0" encoding="UTF-8" standalone="no"?>
<!-- Generator: Adobe Illustrator 22.0.1, SVG Export Plug-In . SVG Version: 6.00 Build 0)  -->

<svg
   xmlns:dc="http://purl.org/dc/elements/1.1/"
   xmlns:cc="http://creativecommons.org/ns#"
   xmlns:rdf="http://www.w3.org/1999/02/22-rdf-syntax-ns#"
   xmlns:svg="http://www.w3.org/2000/svg"
   xmlns="http://www.w3.org/2000/svg"
   xmlns:sodipodi="http://sodipodi.sourceforge.net/DTD/sodipodi-0.dtd"
   xmlns:inkscape="http://www.inkscape.org/namespaces/inkscape"
   version="1.1"
   id="Layer_1"
   x="0px"
   y="0px"
   viewBox="0 0 64 64"
   style="enable-background:new 0 0 64 64;"
   xml:space="preserve"
   sodipodi:docname="save.svg"
   inkscape:version="0.92.1 r15371"
   inkscape:export-filename="D:\dev\perso\hive\resources\save.png"
   inkscape:export-xdpi="96"
   inkscape:export-ydpi="96"><metadata
     id="metadata26"><rdf:RDF><cc:Work
         rdf:about=""><dc:format>image/svg+xml</dc:format><dc:type
           rdf:resource="http://purl.org/dc/dcmitype/StillImage" /><dc:title></dc:title></cc:Work></rdf:RDF></metadata><defs
     id="defs24" /><sodipodi:namedview
     pagecolor="#ffffff"
     bordercolor="#666666"
     borderopacity="1"
     objecttolerance="10"
     gridtolerance="10"
     guidetolerance="10"
     inkscape:pageopacity="0"
     inkscape:pageshadow="2"
     inkscape:window-width="1920"
     inkscape:window-height="1027"
     id="namedview22"
     showgrid="false"
     inkscape:zoom="7.375"
     inkscape:cx="12.720428"
     inkscape:cy="38.710832"
     inkscape:window-x="-8"
     inkscape:window-y="-8"
     inkscape:window-maximized="1"
     inkscape:current-layer="Layer_1" /><style
     type="text/css"
     id="style2">
	.st0{display:none;}
	.st1{display:inline;fill:none;stroke:#424A60;stroke-width:4;stroke-linecap:round;stroke-miterlimit:10;}
	.st2{display:inline;fill:#EBBA16;}
	.st3{display:inline;fill:#424A60;}
	.st4{display:inline;fill:#38454F;}
	.st5{fill:none;stroke:#424A60;stroke-width:4;stroke-linecap:round;stroke-miterlimit:10;}
	.st6{fill:#EBBA16;}
	.st7{fill:#424A60;}
	.st8{fill:#38454F;}
</style><g
     id="locked"
     class="st0"><path
       class="st1"
       d="M20,30.5V15.1c0-5.8,5.2-10.6,11.5-10.6l0,0C37.8,4.5,43,9.3,43,15.1v15.4H20z"
       id="path4" /><rect
       x="11"
       y="27.5"
       class="st2"
       width="42"
       height="32"
       id="rect6" /><path
       class="st3"
       d="M32,47.5L32,47.5c-1.6,0-3-1.3-3-3v-6c0-1.7,1.4-3,3-3l0,0c1.7,0,3,1.3,3,3v6C35,46.2,33.7,47.5,32,47.5z"
       id="path8" /><rect
       x="11"
       y="53.5"
       class="st4"
       width="42"
       height="6"
       id="rect10" /></g><g
     transform="matrix(0.2035963,0,0,0.2035963,5.0981876,3.5058669)"
     id="g14" /><g
     transform="matrix(0.2035963,0,0,0.2035963,5.0981876,3.5058669)"
     id="g16" /><g
     transform="matrix(0.2035963,0,0,0.2035963,5.0981876,3.5058669)"
     id="g18" /><g
     transform="matrix(0.2035963,0,0,0.2035963,5.0981876,3.5058669)"
     id="g20" /><g
     transform="matrix(0.2035963,0,0,0.2035963,5.0981876,3.5058669)"
     id="g22" /><g
     transform="matrix(0.2035963,0,0,0.2035963,5.0981876,3.5058669)"
     id="g24" /><g
     transform="matrix(0.2035963,0,0,0.2035963,5.0981876,3.5058669)"
     id="g26" /><g
     transform="matrix(0.2035963,0,0,0.2035963,5.0981876,3.5058669)"
     id="g28" /><g
     transform="matrix(0.2035963,0,0,0.2035963,5.0981876,3.5058669)"
     id="g30" /><g
     transform="matrix(0.2035963,0,0,0.2035963,5.0981876,3.5058669)"
     id="g32" /><g
     transform="matrix(0.2035963,0,0,0.2035963,5.0981876,3.5058669)"
     id="g34" /><g
     transform="matrix(0.2035963,0,0,0.2035963,5.0981876,3.5058669)"
     id="g36" /><g
     transform="matrix(0.2035963,0,0,0.2035963,5.0981876,3.5058669)"
     id="g38" /><g
     transform="matrix(0.2035963,0,0,0.2035963,5.0981876,3.5058669)"
     id="g40" /><g
     transform="matrix(0.2035963,0,0,0.2035963,5.0981876,3.5058669)"
     id="g42" /><rect
     x="14.51445"
     y="32"
     style="fill:#818f9e;fill-opacity:1;stroke-width:0.14450866"
     width="31.213875"
     height="25"
     id="rect2" /><rect
     x="14.514451"
     y="7"
     style="fill:#a59e79;fill-opacity:1;stroke-width:0.16289069"
     width="31.213873"
     height="16.763006"
     id="rect6-7" /><polygon
     style="fill:#333333"
     points="52,116 98,116 268,116 268,0 308.57,0 346,37.43 346,346 268,346 268,173 52,173 52,346 0,346 0,0 52,0 "
     id="polygon8"
     transform="matrix(0.14450867,0,0,0.14450867,7,7)" /><rect
     x="33.322666"
     y="7.063818"
     style="fill:#333333;stroke-width:0.26754701"
     width="7.4923601"
     height="13.375489"
     id="rect10-9" /></svg>