<?xml version="1.0" encoding="utf-8"?>
<!-- Generator: Adobe Illustrator 22.1.0, SVG Export Plug-In . SVG Version: 6.00 Build 0)  -->
<svg version="1.1" id="Calque_1" xmlns="http://www.w3.org/2000/svg" xmlns:xlink="http://www.w3.org/1999/xlink" x="0px" y="0px"
	 viewBox="0 0 324.9 292.7" style="enable-background:new 0 0 324.9 292.7;" xml:space="preserve">
<style type="text/css">
	.st0{fill:#534F97;}
	.st1{fill:#FFFFFF;}
</style>
<path class="st0" d="M222.4,0H102.5C87.3,0,73.3,8.1,65.7,21.3l-60,103.8c-7.6,13.2-7.6,29.4,0,42.5l60,103.8
	c7.6,13.2,21.6,21.3,36.8,21.3h123.2c13.2,0,25.3-7,31.9-18.4l61.6-106.7c7.6-13.2,7.6-29.4,0-42.5l-60-103.8
	C251.6,8.1,237.6,0,222.4,0z"/>
<g>
	<path class="st1" d="M101.1,219.1l-0.1,25.2l-3.2,0L98,188l3.2,0l-0.1,27.9l23.6,0.1l0.1-27.9l3.2,0l-0.2,56.3l-3.2,0l0.1-25.2
		L101.1,219.1z"/>
	<path class="st1" d="M142.3,188.1l-0.2,56.3l-3.2,0l0.2-56.3L142.3,188.1z"/>
	<path class="st1" d="M153.4,188.2l17.4,48.4l17.7-48.2l3.4,0l-21.1,57.5L150,188.2L153.4,188.2z"/>
	<path class="st1" d="M227.1,188.4l0,3.2l-25-0.1l-0.1,23.4l25,0.1l0,3.2l-25-0.1l-0.1,23.4l25,0.1l0,3.2l-28.1-0.1l0.2-56.3
		L227.1,188.4z"/>
	<path class="st1" d="M103.3,255.8l4.5,12.5l-1.7,0l-1.6-4.4l-3.3,0l-1.6,4.4l-1.7,0l4.6-12.5L103.3,255.8z M103.9,262.2l-1.1-2.9
		l-1.1,2.9L103.9,262.2z"/>
	<path class="st1" d="M114,268.3l-4.5-12.5l1.7,0l3.2,9l3.3-9l1.7,0l-4.6,12.5L114,268.3z"/>
	<path class="st1" d="M124.8,255.8c0.7,0,1.3,0.3,1.9,0.8c0.5,0.5,0.8,1.1,0.8,1.9c0,0.7-0.4,1.2-1.1,1.4c0.5,0.1,1.2,0.5,1.8,1.2
		c0.7,0.7,1,1.7,1,2.9s-0.4,2.3-1.3,3.2c-0.8,0.8-1.6,1.3-2.4,1.3v0l-3.2,0l0-12.5L124.8,255.8z M123.9,261.1l0,5.6l1.6,0l0,0
		c0.3,0,0.7-0.3,1.2-0.8c0.5-0.6,0.8-1.2,0.8-2c0-0.8-0.3-1.4-0.8-2c-0.5-0.5-1.2-0.8-2-0.8L123.9,261.1z M123.9,257.5l0,2l1.1,0
		c0.2,0,0.4-0.1,0.6-0.3c0.2-0.2,0.3-0.4,0.3-0.7c0-0.3-0.1-0.5-0.3-0.7c-0.2-0.2-0.4-0.3-0.7-0.3L123.9,257.5z"/>
	<path class="st1" d="M148.8,265.4l1.2,1.1c-1.5,1.3-3.1,2-4.7,2c-1.8,0-3.3-0.6-4.5-1.9s-1.9-2.8-1.9-4.5c0-1.8,0.6-3.3,1.9-4.5
		c1.2-1.2,2.8-1.9,4.5-1.9c1.7,0,3.2,0.7,4.7,2l-1.2,1.1c-1.1-1-2.3-1.5-3.5-1.5c-1.3,0-2.4,0.5-3.4,1.4s-1.4,2-1.4,3.4
		c0,1.3,0.5,2.4,1.4,3.4s2,1.4,3.4,1.4C146.6,266.9,147.7,266.4,148.8,265.4z"/>
	<path class="st1" d="M157.3,259.8c1.2,0,2.3,0.4,3.1,1.3c0.9,0.9,1.3,1.9,1.3,3.2s-0.4,2.3-1.3,3.1s-1.9,1.3-3.1,1.3
		c-1.2,0-2.3-0.4-3.1-1.3c-0.9-0.9-1.3-1.9-1.3-3.2s0.4-2.3,1.3-3.1C155,260.2,156,259.7,157.3,259.8z M155.3,262.2
		c-0.5,0.5-0.8,1.2-0.8,2c0,0.8,0.3,1.4,0.8,2s1.2,0.8,2,0.8c0.8,0,1.4-0.3,2-0.8s0.8-1.2,0.8-2c0-0.8-0.3-1.4-0.8-2s-1.2-0.8-2-0.8
		C156.5,261.4,155.8,261.7,155.3,262.2z"/>
	<path class="st1" d="M166.5,262.6l0,5.9l-1.6,0l0-8l1.6,0l0,0.9c0.3-0.9,1-1.4,2-1.4c0.9,0,1.6,0.3,2.1,0.9
		c0.5,0.6,0.8,1.4,0.8,2.3l0,5.2l-1.6,0l0-5.2c0-0.5-0.2-0.9-0.5-1.2s-0.7-0.5-1.2-0.5c-0.5,0-0.9,0.2-1.2,0.5
		C166.7,262.3,166.5,262.5,166.5,262.6z"/>
	<path class="st1" d="M176,260.5l0-3l1.6,0l0,3l1.4,0l0,1.6l-1.4,0l0,6.4l-1.6,0l0-6.4l-1.4,0l0-1.6L176,260.5z"/>
	<path class="st1" d="M183.9,261.6c0.6-0.8,1.4-1.2,2.2-1.3l0,1.7c-0.6,0-1.1,0.2-1.4,0.6c-0.5,0.5-0.8,1.1-0.8,1.9l0,4.1l-1.6,0
		l0-8l1.6,0L183.9,261.6z"/>
	<path class="st1" d="M192.8,259.9c1.2,0,2.3,0.4,3.1,1.3c0.9,0.9,1.3,1.9,1.3,3.2s-0.4,2.3-1.3,3.1c-0.9,0.9-1.9,1.3-3.1,1.3
		c-1.2,0-2.3-0.4-3.1-1.3s-1.3-1.9-1.3-3.2s0.4-2.3,1.3-3.1C190.5,260.3,191.5,259.9,192.8,259.9z M190.8,262.3
		c-0.5,0.5-0.8,1.2-0.8,2c0,0.8,0.3,1.4,0.8,2s1.2,0.8,2,0.8c0.8,0,1.4-0.3,2-0.8s0.8-1.2,0.8-2c0-0.8-0.3-1.4-0.8-2s-1.2-0.8-2-0.8
		C192,261.5,191.3,261.8,190.8,262.3z"/>
	<path class="st1" d="M202,256.1l0,12.5l-1.6,0l0-12.5L202,256.1z"/>
	<path class="st1" d="M207.3,256.1l0,12.5l-1.6,0l0-12.5L207.3,256.1z"/>
	<path class="st1" d="M213.3,266.8c0.3,0.2,0.8,0.4,1.5,0.4c0.8,0,1.4-0.3,2-0.8c0.1-0.1,0.2-0.2,0.4-0.5l1.6,0.6
		c-0.4,0.5-0.7,0.9-0.9,1.1c-0.9,0.9-1.9,1.3-3.2,1.3c-1.2,0-2.3-0.4-3.1-1.3c-0.9-0.9-1.3-1.9-1.3-3.2s0.4-2.3,1.3-3.1
		c0.9-0.9,1.9-1.3,3.1-1.3c1.1,0,2,0.3,2.8,1c0.1,0.1,0.3,0.2,0.4,0.4c0.1,0.1,0.2,0.2,0.4,0.5l-0.8,0.8L213.3,266.8z M216.1,261.8
		c-0.2-0.1-0.6-0.2-1.2-0.2c-0.8,0-1.4,0.3-2,0.8c-0.5,0.5-0.8,1.2-0.8,2c0,0.6,0.1,1,0.2,1.2L216.1,261.8z"/>
	<path class="st1" d="M223.6,261.7c0.6-0.8,1.4-1.2,2.2-1.3l0,1.7c-0.6,0-1.1,0.2-1.4,0.6c-0.5,0.5-0.8,1.1-0.8,1.9l0,4.1l-1.6,0
		l0-8l1.6,0L223.6,261.7z"/>
</g>
<g>
	<path class="st1" d="M247,117.8c-2.3-5.6-6.3-11.2-11.7-16.1c-0.7,0.6-1.4,1.2-2.2,1.7c-8,6.1-17,10-25.3,10.9
		c-1.3,0.2-2.6,0.2-3.8,0.2c-4.1,0-7.7-0.8-10.7-2.4c3,5.8,8,11.8,14.4,16.7c7.4,5.6,15.6,9.2,23.1,10c7.1,0.8,12.6-0.9,15.6-4.8
		C249.5,130.2,249.7,124.4,247,117.8z"/>
	<path class="st1" d="M191.2,88.7c-2.7,6.6-2.5,12.4,0.5,16.3c3,3.9,8.5,5.6,15.6,4.8c7.5-0.9,15.7-4.4,23.1-10
		c14.6-11.2,21.6-27.6,15.3-35.9c-2.6-3.4-7-5-12.3-5c-7.9,0-17.7,3.5-26.4,10.2C199.7,74.8,194.1,81.7,191.2,88.7z"/>
	<path class="st1" d="M120.9,114.6c-1.2,0-2.5-0.1-3.8-0.2c-8.3-1-17.3-4.8-25.3-10.9c-0.7-0.6-1.5-1.1-2.2-1.7
		c-5.3,4.9-9.4,10.5-11.7,16.1c-2.7,6.6-2.5,12.4,0.5,16.3c3,3.9,8.5,5.6,15.6,4.8c7.5-0.9,15.7-4.4,23.1-10
		c6.5-4.9,11.4-10.9,14.4-16.7C128.6,113.8,125,114.6,120.9,114.6z"/>
	<path class="st1" d="M94.5,99.8c7.4,5.6,15.6,9.2,23.1,10c7.1,0.8,12.6-0.9,15.6-4.8c3-3.9,3.2-9.7,0.5-16.3
		c-2.8-7-8.4-14-15.8-19.6C109.1,62.5,99.3,59,91.4,59c-5.3,0-9.7,1.6-12.3,5C72.8,72.2,79.8,88.7,94.5,99.8z"/>
	<path class="st1" d="M162.4,140.5c-0.1,0-0.2,0-0.3,0c-11.9,0-23.6-1.6-34.7-4.6c0.7,3.6,1.7,7,2.8,10.2c10.3,2.8,21,4.3,31.9,4.3
		c0.1,0,0.2,0,0.3,0c0.1,0,0.2,0,0.3,0c10.9,0,21.6-1.5,31.9-4.3c1.1-3.2,2.1-6.7,2.8-10.2c-11.2,3-22.8,4.6-34.7,4.6
		C162.6,140.5,162.5,140.5,162.4,140.5z"/>
	<path class="st1" d="M162.4,162.4c-0.1,0-0.2,0-0.3,0c-8.5,0-17-0.8-25.2-2.4c6.6,10.2,15.6,16.4,25.5,16.4s18.8-6.3,25.5-16.4
		c-8.2,1.6-16.6,2.4-25.2,2.4C162.6,162.4,162.5,162.4,162.4,162.4z"/>
	<path class="st1" d="M129.2,123.8c10.9,3.1,22.1,4.6,33.3,4.6c11.2,0,22.4-1.5,33.3-4.6c-2.6-3-4.7-6.1-6.3-9.1
		c-8.7,1.8-17.7,2.7-26.7,2.7c-0.1,0-0.2,0-0.3,0c-0.1,0-0.2,0-0.3,0c-9.1,0-18-0.9-26.7-2.7C133.8,117.7,131.7,120.8,129.2,123.8z"
		/>
	<path class="st1" d="M191,79.6c-0.3-0.5-0.5-1-0.8-1.5c-7.5,4.6-17.2,7.4-27.8,7.4s-20.3-2.8-27.8-7.4c-0.3,0.5-0.5,1-0.8,1.5
		c1.6,2.4,2.9,4.9,3.9,7.4c2.4,5.9,2.8,11.5,1.3,16.1c0,0,0,0,0,0c7.5,1.4,15.2,2.2,23,2.2c0.1,0,0.2,0,0.3,0c0.1,0,0.2,0,0.3,0
		c7.8,0,15.5-0.8,23-2.2c0,0,0,0,0,0c-1.5-4.6-1.1-10.1,1.3-16.1C188.1,84.6,189.4,82.1,191,79.6z"/>
	<path class="st1" d="M122.2,31.4c5.4,0,10.4,1.6,14.6,4.2c-7.4,4.7-12,11.4-12,18.9c0,7.6,4.8,14.5,12.5,19.2
		c6.7,4.1,15.5,6.6,25.1,6.6s18.4-2.5,25.1-6.6c7.7-4.7,12.5-11.6,12.5-19.2c0-7.6-4.8-14.4-12.3-19.1c4.2-2.6,9-4,14.3-4
		c1.6,0,3-1.3,3-3s-1.3-3-3-3c-7.6,0-14.7,2.6-20.3,6.9c-5.6-2.3-12.2-3.7-19.3-3.7c-7.2,0-14,1.4-19.7,3.8
		c-5.7-4.4-12.8-7.1-20.5-7.1c-1.6,0-3,1.3-3,3S120.6,31.4,122.2,31.4z"/>
</g>
</svg>
