<?xml version="1.0" encoding="UTF-8" standalone="no"?>
<!-- Generator: Adobe Illustrator 22.0.1, SVG Export Plug-In . SVG Version: 6.00 Build 0)  -->

<svg
   xmlns:dc="http://purl.org/dc/elements/1.1/"
   xmlns:cc="http://creativecommons.org/ns#"
   xmlns:rdf="http://www.w3.org/1999/02/22-rdf-syntax-ns#"
   xmlns:svg="http://www.w3.org/2000/svg"
   xmlns="http://www.w3.org/2000/svg"
   xmlns:sodipodi="http://sodipodi.sourceforge.net/DTD/sodipodi-0.dtd"
   xmlns:inkscape="http://www.inkscape.org/namespaces/inkscape"
   version="1.1"
   id="Layer_1"
   x="0px"
   y="0px"
   viewBox="0 0 64 64"
   style="enable-background:new 0 0 64 64;"
   xml:space="preserve"
   sodipodi:docname="trash.svg"
   inkscape:version="0.92.1 r15371"
   inkscape:export-filename="D:\dev\perso\hive\resources\trash.png"
   inkscape:export-xdpi="96"
   inkscape:export-ydpi="96"><metadata
     id="metadata26"><rdf:RDF><cc:Work
         rdf:about=""><dc:format>image/svg+xml</dc:format><dc:type
           rdf:resource="http://purl.org/dc/dcmitype/StillImage" /><dc:title /></cc:Work></rdf:RDF></metadata><defs
     id="defs24" /><sodipodi:namedview
     pagecolor="#ffffff"
     bordercolor="#666666"
     borderopacity="1"
     objecttolerance="10"
     gridtolerance="10"
     guidetolerance="10"
     inkscape:pageopacity="0"
     inkscape:pageshadow="2"
     inkscape:window-width="1920"
     inkscape:window-height="1027"
     id="namedview22"
     showgrid="false"
     inkscape:zoom="3.6875"
     inkscape:cx="52.32198"
     inkscape:cy="38.195201"
     inkscape:window-x="-8"
     inkscape:window-y="-8"
     inkscape:window-maximized="1"
     inkscape:current-layer="Layer_1" /><style
     type="text/css"
     id="style2">
	.st0{display:none;}
	.st1{display:inline;fill:none;stroke:#424A60;stroke-width:4;stroke-linecap:round;stroke-miterlimit:10;}
	.st2{display:inline;fill:#EBBA16;}
	.st3{display:inline;fill:#424A60;}
	.st4{display:inline;fill:#38454F;}
	.st5{fill:none;stroke:#424A60;stroke-width:4;stroke-linecap:round;stroke-miterlimit:10;}
	.st6{fill:#EBBA16;}
	.st7{fill:#424A60;}
	.st8{fill:#38454F;}
</style><g
     id="locked"
     class="st0"><path
       class="st1"
       d="M20,30.5V15.1c0-5.8,5.2-10.6,11.5-10.6l0,0C37.8,4.5,43,9.3,43,15.1v15.4H20z"
       id="path4" /><rect
       x="11"
       y="27.5"
       class="st2"
       width="42"
       height="32"
       id="rect6" /><path
       class="st3"
       d="M32,47.5L32,47.5c-1.6,0-3-1.3-3-3v-6c0-1.7,1.4-3,3-3l0,0c1.7,0,3,1.3,3,3v6C35,46.2,33.7,47.5,32,47.5z"
       id="path8" /><rect
       x="11"
       y="53.5"
       class="st4"
       width="42"
       height="6"
       id="rect10" /></g><path
     id="path2"
     d="m 11.555601,18 v 38.49995 c 0,1.932007 1.59293,3.50005 3.555601,3.50005 H 48.8888 c 1.96267,0 3.5556,-1.568043 3.5556,-3.50005 V 18 Z"
     style="fill:#9ca0a1;stroke-width:0.20156074;fill-opacity:1"
     inkscape:connector-curvature="0" /><path
     id="path4-9"
     d="m 24,4.0000006 h 16.000001 c 1.96267,0 3.555601,1.5680432 3.555601,3.50005 V 11.000101 H 40.000001 V 9.2500755 c 0,-0.9659034 -0.794739,-1.7500249 -1.777801,-1.7500249 H 25.777801 C 24.794739,7.5000506 24,8.2839722 24,9.2500755 V 11.000101 H 20.4444 V 7.5000506 c 0,-1.9320068 1.59293,-3.50005 3.5556,-3.50005 z"
     style="fill:#9ca0a1;stroke-width:0.20156074;fill-opacity:1"
     inkscape:connector-curvature="0" /><path
     id="path6"
     d="m 18.666599,52.124788 c 0,1.450655 1.194749,2.624937 2.666599,2.624937 1.472054,0 2.666599,-1.174282 2.666599,-2.624937 V 26.695731 H 18.666599 Z M 40.000001,26.695731 v 25.429257 c 0,1.449055 1.194748,2.624937 2.666599,2.624937 1.472053,0 2.666599,-1.176082 2.666599,-2.624937 V 26.695731 Z M 29.333198,52.124788 c 0,1.449055 1.194749,2.624937 2.666599,2.624937 1.472054,0 2.666599,-1.176082 2.666599,-2.624937 V 26.695731 h -5.333401 z"
     style="fill:#757677;stroke-width:0.20156074;fill-opacity:1"
     inkscape:connector-curvature="0" /><path
     id="path8-5"
     d="M 11.555601,19.750025 H 52.4444 v 3.50005 H 11.555601 Z"
     style="fill:#757677;stroke-width:0.20156074;fill-opacity:1"
     inkscape:connector-curvature="0" /><path
     id="path10"
     d="M 11.555601,10.999901 H 52.4444 c 1.962671,0 3.555601,1.568043 3.555601,3.500049 v 5.250075 H 8 v -5.250074 c 0,-1.932007 1.5929303,-3.50005 3.555601,-3.50005 z"
     style="fill:#9ca0a1;stroke-width:0.20156074;fill-opacity:1"
     inkscape:connector-curvature="0" /><g
     transform="matrix(0.2035963,0,0,0.2035963,5.0981876,3.5058669)"
     id="g14" /><g
     transform="matrix(0.2035963,0,0,0.2035963,5.0981876,3.5058669)"
     id="g16" /><g
     transform="matrix(0.2035963,0,0,0.2035963,5.0981876,3.5058669)"
     id="g18" /><g
     transform="matrix(0.2035963,0,0,0.2035963,5.0981876,3.5058669)"
     id="g20" /><g
     transform="matrix(0.2035963,0,0,0.2035963,5.0981876,3.5058669)"
     id="g22" /><g
     transform="matrix(0.2035963,0,0,0.2035963,5.0981876,3.5058669)"
     id="g24" /><g
     transform="matrix(0.2035963,0,0,0.2035963,5.0981876,3.5058669)"
     id="g26" /><g
     transform="matrix(0.2035963,0,0,0.2035963,5.0981876,3.5058669)"
     id="g28" /><g
     transform="matrix(0.2035963,0,0,0.2035963,5.0981876,3.5058669)"
     id="g30" /><g
     transform="matrix(0.2035963,0,0,0.2035963,5.0981876,3.5058669)"
     id="g32" /><g
     transform="matrix(0.2035963,0,0,0.2035963,5.0981876,3.5058669)"
     id="g34" /><g
     transform="matrix(0.2035963,0,0,0.2035963,5.0981876,3.5058669)"
     id="g36" /><g
     transform="matrix(0.2035963,0,0,0.2035963,5.0981876,3.5058669)"
     id="g38" /><g
     transform="matrix(0.2035963,0,0,0.2035963,5.0981876,3.5058669)"
     id="g40" /><g
     transform="matrix(0.2035963,0,0,0.2035963,5.0981876,3.5058669)"
     id="g42" /></svg>