<?xml version="1.0" encoding="UTF-8" standalone="no"?>
<!-- Generator: Adobe Illustrator 22.0.1, SVG Export Plug-In . SVG Version: 6.00 Build 0)  -->

<svg
   xmlns:dc="http://purl.org/dc/elements/1.1/"
   xmlns:cc="http://creativecommons.org/ns#"
   xmlns:rdf="http://www.w3.org/1999/02/22-rdf-syntax-ns#"
   xmlns:svg="http://www.w3.org/2000/svg"
   xmlns="http://www.w3.org/2000/svg"
   xmlns:sodipodi="http://sodipodi.sourceforge.net/DTD/sodipodi-0.dtd"
   xmlns:inkscape="http://www.inkscape.org/namespaces/inkscape"
   version="1.1"
   x="0px"
   y="0px"
   viewBox="0 0 64 64"
   style="enable-background:new 0 0 64 64;"
   xml:space="preserve"
   id="svg4505"
   sodipodi:docname="unlocked.svg"
   inkscape:export-filename="D:\dev\perso\hive\resources\unlocked.png"
   inkscape:export-xdpi="96"
   inkscape:export-ydpi="96"
   inkscape:version="0.92.1 r15371"><metadata
     id="metadata4511"><rdf:RDF><cc:Work
         rdf:about=""><dc:format>image/svg+xml</dc:format><dc:type
           rdf:resource="http://purl.org/dc/dcmitype/StillImage" /></cc:Work></rdf:RDF></metadata><defs
     id="defs4509" /><sodipodi:namedview
     pagecolor="#ffffff"
     bordercolor="#666666"
     borderopacity="1"
     objecttolerance="10"
     gridtolerance="10"
     guidetolerance="10"
     inkscape:pageopacity="0"
     inkscape:pageshadow="2"
     inkscape:window-width="1920"
     inkscape:window-height="1057"
     id="namedview4507"
     showgrid="false"
     inkscape:zoom="16"
     inkscape:cx="29.956467"
     inkscape:cy="27.127768"
     inkscape:window-x="1912"
     inkscape:window-y="-8"
     inkscape:window-maximized="1"
     inkscape:current-layer="unlocked" /><style
     type="text/css"
     id="style4485">
	.st0{display:none;}
	.st1{display:inline;fill:none;stroke:#424A60;stroke-width:4;stroke-linecap:round;stroke-miterlimit:10;}
	.st2{display:inline;fill:#EBBA16;}
	.st3{display:inline;fill:#424A60;}
	.st4{display:inline;fill:#38454F;}
	.st5{fill:none;stroke:#424A60;stroke-width:4;stroke-linecap:round;stroke-miterlimit:10;}
	.st6{fill:#EBBA16;}
	.st7{fill:#424A60;}
	.st8{fill:#38454F;}
</style><g
     id="locked"
     class="st0"><path
       class="st1"
       d="M20,30.5V15.1c0-5.8,5.2-10.6,11.5-10.6l0,0C37.8,4.5,43,9.3,43,15.1v15.4H20z"
       id="path4487" /><rect
       x="11"
       y="27.5"
       class="st2"
       width="42"
       height="32"
       id="rect4489" /><path
       class="st3"
       d="M32,47.5L32,47.5c-1.6,0-3-1.3-3-3v-6c0-1.7,1.4-3,3-3l0,0c1.7,0,3,1.3,3,3v6C35,46.2,33.7,47.5,32,47.5z"
       id="path4491" /><rect
       x="11"
       y="53.5"
       class="st4"
       width="42"
       height="6"
       id="rect4493" /></g><g
     id="unlocked"><path
       class="st5"
       d="M20,18.3v-3.2c0-5.8,5.2-10.6,11.5-10.6l0,0C37.8,4.5,43,9.3,43,15.1v12.4"
       id="path4496"
       style="stroke-width:3.99874016;stroke-miterlimit:10;stroke-dasharray:none;stroke:#b2b9ca;stroke-opacity:1" /><rect
       x="11"
       y="27.5"
       class="st6"
       width="42"
       height="32"
       id="rect4498"
       style="stroke:none;stroke-opacity:1;fill:#faecbe;fill-opacity:1" /><path
       class="st7"
       d="M32,47.5L32,47.5c-1.6,0-3-1.3-3-3v-6c0-1.7,1.4-3,3-3l0,0c1.7,0,3,1.3,3,3v6C35,46.2,33.7,47.5,32,47.5z"
       id="path4500"
       style="stroke-width:3.99874016;stroke-miterlimit:10;stroke-dasharray:none;fill:#b2b9ca;fill-opacity:1" /><rect
       x="11"
       y="53.5"
       class="st8"
       width="42"
       height="6"
       id="rect4502"
       style="stroke-width:3.99874016;stroke-miterlimit:10;stroke-dasharray:none;fill:#b3c0c9;fill-opacity:1" /></g></svg>