<svg width="16" height="16" viewBox="0 0 16 16" fill="none" xmlns="http://www.w3.org/2000/svg">
<path d="M15.8143 13.5105L9.53088 0.943555C9.38818 0.659888 9.16947 0.421447 8.89915 0.254837C8.62883 0.0882269 8.31754 0 8 0C7.68246 0 7.37117 0.0882269 7.10085 0.254837C6.83053 0.421447 6.61182 0.659888 6.46912 0.943555L0.185669 13.5105C0.0528794 13.771 -0.0105702 14.0613 0.00143585 14.3534C0.0134419 14.6456 0.100499 14.9297 0.254216 15.1784C0.40999 15.4258 0.625686 15.6298 0.881315 15.7716C1.13694 15.9134 1.42423 15.9884 1.71655 15.9896H14.2835C14.5758 15.9884 14.8631 15.9134 15.1187 15.7716C15.3743 15.6298 15.59 15.4258 15.7458 15.1784C15.8995 14.9297 15.9866 14.6456 15.9986 14.3534C16.0106 14.0613 15.9471 13.771 15.8143 13.5105ZM7.14317 5.70756C7.14317 5.48031 7.23344 5.26237 7.39413 5.10168C7.55481 4.94099 7.77275 4.85072 8 4.85072C8.22725 4.85072 8.44519 4.94099 8.60587 5.10168C8.76656 5.26237 8.85683 5.48031 8.85683 5.70756V9.13489C8.85683 9.36214 8.76656 9.58008 8.60587 9.74077C8.44519 9.90145 8.22725 9.99173 8 9.99173C7.77275 9.99173 7.55481 9.90145 7.39413 9.74077C7.23344 9.58008 7.14317 9.36214 7.14317 9.13489V5.70756ZM8 13.7047C7.77405 13.7047 7.55317 13.6377 7.36529 13.5121C7.17742 13.3866 7.03099 13.2082 6.94452 12.9994C6.85805 12.7907 6.83542 12.561 6.87951 12.3394C6.92359 12.1177 7.0324 11.9142 7.19217 11.7544C7.35194 11.5946 7.55551 11.4858 7.77712 11.4417C7.99873 11.3977 8.22844 11.4203 8.43719 11.5068C8.64595 11.5932 8.82438 11.7396 8.94991 11.9275C9.07544 12.1154 9.14245 12.3363 9.14245 12.5622C9.14245 12.8652 9.02208 13.1558 8.80783 13.3701C8.59358 13.5843 8.303 13.7047 8 13.7047Z" fill="#FF9933"/>
</svg>
